HIERARCHY
ROOT Hips
{
    OFFSET 0.000000 0.000000 0.000000
    CHANNELS 6 Xposition Yposition Zposition Zrotation Xrotation Yrotation
    JOINT Spine
    {
        OFFSET -0.000000 7.236184 0.000000
        CHANNELS 3 Zrotation Xrotation Yrotation
        JOINT Spine1
        {
            OFFSET -0.000000 20.420147 0.000000
            CHANNELS 3 Zrotation Xrotation Yrotation
            JOINT Neck
            {
                OFFSET -0.000000 20.336288 1.848754
                CHANNELS 3 Zrotation Xrotation Yrotation
                JOINT Head
                {
                    OFFSET -0.000000 12.354461 -1.764923
                    CHANNELS 3 Zrotation Xrotation Yrotation
                    End Site
                    {
                        OFFSET -0.000000 22.061537 0.000000
                    }
                }
            }
            JOINT LeftShoulder
            {
                OFFSET 3.573296 18.396038 -0.314103
                CHANNELS 3 Zrotation Xrotation Yrotation
                JOINT LeftArm
                {
                    OFFSET 10.880760 0.000000 0.000000
                    CHANNELS 3 Zrotation Xrotation Yrotation
                    JOINT LeftForeArm
                    {
                        OFFSET 27.185530 0.000000 0.000000
                        CHANNELS 3 Zrotation Xrotation Yrotation
                        JOINT LeftHand
                        {
                            OFFSET 27.825975 0.000000 0.000000
                            CHANNELS 3 Zrotation Xrotation Yrotation
                            End Site
                            {
                                OFFSET 13.236923 0.000000 0.000000
                            }
                        }
                    }
                }
            }
            JOINT RightShoulder
            {
                OFFSET -3.474926 18.396038 -0.314103
                CHANNELS 3 Zrotation Xrotation Yrotation
                JOINT RightArm
                {
                    OFFSET -10.880760 0.000000 0.000000
                    CHANNELS 3 Zrotation Xrotation Yrotation
                    JOINT RightForeArm
                    {
                        OFFSET -27.185530 0.000000 0.000000
                        CHANNELS 3 Zrotation Xrotation Yrotation
                        JOINT RightHand
                        {
                            OFFSET -27.825975 0.000000 0.000000
                            CHANNELS 3 Zrotation Xrotation Yrotation
                            End Site
                            {
                                OFFSET -13.236923 0.000000 0.000000
                            }
                        }
                    }
                }
            }
        }
    }
    JOINT LeftUpLeg
    {
        OFFSET 8.824615 0.000000 0.000000
        CHANNELS 3 Zrotation Xrotation Yrotation
        JOINT LeftLeg
        {
            OFFSET -0.000000 -35.111282 0.000000
            CHANNELS 3 Zrotation Xrotation Yrotation
            JOINT LeftFoot
            {
                OFFSET -0.000000 -42.324711 0.000000
                CHANNELS 3 Zrotation Xrotation Yrotation
                JOINT LeftToeBase
                {
                    OFFSET -0.000000 -5.735999 13.236923
                    CHANNELS 3 Zrotation Xrotation Yrotation
                    End Site
                    {
                        OFFSET -0.000000 0.000000 3.529846
                    }
                }
            }
        }
    }
    JOINT RightUpLeg
    {
        OFFSET -8.824615 0.000000 0.000000
        CHANNELS 3 Zrotation Xrotation Yrotation
        JOINT RightLeg
        {
            OFFSET -0.000000 -35.111282 0.000000
            CHANNELS 3 Zrotation Xrotation Yrotation
            JOINT RightFoot
            {
                OFFSET -0.000000 -42.324711 0.000000
                CHANNELS 3 Zrotation Xrotation Yrotation
                JOINT RightToeBase
                {
                    OFFSET -0.000000 -5.735999 13.236923
                    CHANNELS 3 Zrotation Xrotation Yrotation
                    End Site
                    {
                        OFFSET -0.000000 0.000000 3.529846
                    }
                }
            }
        }
    }
}
MOTION
Frames:    7
Frame Time:    0.008333
-1.122823    81.006462    96.041344    -0.248807    -5.865146    -178.858017    -1.326910    -15.865462    0.317712    0.917743    8.116563    0.437503    2.873526    4.818716    -0.385594    3.003508    3.981259    -0.378512    0.769089    18.380089    -3.576157    -41.755928    48.112667    -42.567585    -2.702473    -5.364767    -17.897146    17.182995    -5.319903    3.114724    6.399921    19.724714    -2.950035    36.847740    46.383430    42.676422    0.634644    -6.665504    17.646288    -14.911764    -6.178905    -4.492304    3.891798    -3.648454    1.761741    -2.877929    6.616397    1.824922    -0.999724    -7.889051    -8.247819    0.066882    0.282160    -0.074098    -3.730247    -1.814527    2.956599    3.702800    3.377678    5.145099    -2.049147    -6.312499    -11.108667    -0.398807    0.136232    0.431260    
-1.126209    81.006714    96.042397    -0.246303    -5.865059    -178.860519    -1.327637    -15.867306    0.317492    0.918049    8.115824    0.437557    2.872355    4.821822    -0.386728    3.006286    3.985504    -0.379310    0.768065    18.380499    -3.575410    -41.752728    48.113174    -42.568981    -2.703952    -5.363990    -17.897276    17.183622    -5.319270    3.115175    6.400183    19.725288    -2.949688    36.850018    46.384705    42.674576    0.632587    -6.668201    17.646856    -14.907678    -6.181835    -4.489407    3.892492    -3.648145    1.761883    -2.879532    6.615209    1.828720    -0.995535    -7.888066    -8.248301    0.067433    0.281951    -0.074709    -3.729530    -1.816106    2.958866    3.702128    3.379088    5.150314    -2.045382    -6.311956    -11.113350    -0.397258    0.136298    0.429585    
-1.129621    81.006989    96.043381    -0.243706    -5.865229    -178.862854    -1.327955    -15.869111    0.317620    0.917798    8.114442    0.437618    2.871220    4.824903    -0.388004    3.009300    3.990106    -0.380115    0.766896    18.380762    -3.574830    -41.749950    48.113689    -42.569424    -2.705502    -5.363119    -17.897474    17.184689    -5.318511    3.115802    6.400441    19.725904    -2.949165    36.852974    46.385521    42.672386    0.631448    -6.670239    17.646929    -14.904200    -6.184265    -4.486026    3.893253    -3.648003    1.762163    -2.881073    6.613855    1.831895    -0.991787    -7.887234    -8.248439    0.068026    0.281984    -0.075366    -3.728631    -1.817974    2.960620    3.701073    3.380633    5.155625    -2.041516    -6.311251    -11.117688    -0.395617    0.136303    0.427810    
-1.133037    81.007294    96.044273    -0.240978    -5.865551    -178.865097    -1.327943    -15.870911    0.317795    0.917364    8.112779    0.437996    2.869630    4.827409    -0.389382    3.012722    3.995436    -0.381087    0.765410    18.380817    -3.574247    -41.747581    48.114105    -42.569145    -2.707127    -5.362143    -17.897644    17.186384    -5.317644    3.116624    6.400373    19.726507    -2.948671    36.856434    46.385201    42.670540    0.632167    -6.671122    17.646009    -14.901706    -6.185906    -4.481896    3.894180    -3.647858    1.762494    -2.882565    6.612431    1.834583    -0.988582    -7.886746    -8.248229    0.068705    0.282602    -0.076118    -3.727660    -1.819854    2.962411    3.699894    3.382191    5.161870    -2.037599    -6.310416    -11.123109    -0.393999    0.136264    0.426061    
-1.136480    81.007599    96.045097    -0.238224    -5.866121    -178.867233    -1.327766    -15.872762    0.318284    0.916956    8.110702    0.438373    2.867403    4.829865    -0.390966    3.016509    4.000947    -0.382165    0.763374    18.380602    -3.573906    -41.746239    48.114082    -42.567368    -2.708881    -5.360989    -17.897631    17.188532    -5.316568    3.117479    6.399869    19.727299    -2.947984    36.860123    46.383297    42.669182    0.635309    -6.670679    17.644085    -14.900177    -6.186647    -4.476861    3.895101    -3.647872    1.762926    -2.883961    6.610879    1.836659    -0.985735    -7.886528    -8.247506    0.069586    0.283526    -0.077094    -3.726650    -1.821938    2.963889    3.698480    3.383786    5.168435    -2.033547    -6.309455    -11.128686    -0.392426    0.135921    0.424360    
-1.139940    81.007912    96.045837    -0.235496    -5.866811    -178.869293    -1.327340    -15.874607    0.318809    0.916180    8.108362    0.439071    2.865178    4.832335    -0.392687    3.019941    4.006203    -0.383431    0.761510    18.380486    -3.573604    -41.745716    48.113445    -42.565086    -2.710875    -5.359715    -17.897346    17.191227    -5.315392    3.118412    6.399022    19.728258    -2.947165    36.863914    46.379444    42.668625    0.641518    -6.668627    17.641153    -14.900158    -6.186318    -4.470875    3.895925    -3.647902    1.763370    -2.885145    6.609270    1.838429    -0.983429    -7.886624    -8.246537    0.070748    0.284822    -0.078381    -3.725702    -1.824059    2.965305    3.696940    3.385447    5.175324    -2.030707    -6.308381    -11.134923    -0.390979    0.135986    0.422795    
-1.143405    81.008232    96.046486    -0.232745    -5.867508    -178.871246    -1.326785    -15.876310    0.319544    0.915463    8.105828    0.439825    2.862446    4.834619    -0.394598    3.023378    4.011230    -0.384887    0.759429    18.380199    -3.573354    -41.746216    48.112404    -42.561844    -2.712869    -5.358386    -17.896812    17.194176    -5.314114    3.119403    6.397912    19.729094    -2.946102    36.867828    46.373459    42.668579    0.651121    -6.664818    17.636902    -14.901597    -6.184834    -4.463691    3.896789    -3.647815    1.763707    -2.886245    6.607614    1.839842    -0.981679    -7.887012    -8.245149    0.072140    0.286757    -0.079923    -3.724797    -1.826053    2.966823    3.695473    3.386893    5.182283    -2.027446    -6.307215    -11.141500    -0.389568    0.135737    0.421269    
